<svg width="566" height="506" viewBox="0 0 566 506" fill="none" xmlns="http://www.w3.org/2000/svg">
<path d="M529.611 275.683L124.531 449.085C121.764 450.265 118.643 450.299 115.851 449.18C113.059 448.061 110.825 445.879 109.639 443.113L2.7786 193.187C1.91416 191.159 1.88898 188.87 2.70858 186.824C3.52818 184.777 5.12562 183.14 7.15044 182.27L417.677 6.53741C419.739 5.65756 422.065 5.632 424.146 6.46633C426.226 7.30065 427.891 8.92673 428.775 10.9878L535.579 260.782C536.759 263.551 536.793 266.674 535.675 269.467C534.556 272.261 532.375 274.496 529.611 275.683Z" fill="#F2F2F2"/>
<path d="M510.881 268.113L133.356 429.719C127.822 432.088 121.516 429.797 119.299 424.612L26.2436 206.972C24.5994 203.127 26.5979 198.57 30.6987 196.814L413.298 33.0361C417.467 31.2515 422.219 32.98 423.89 36.8888L516.896 254.413C519.113 259.599 516.415 265.745 510.881 268.113Z" fill="white"/>
<path d="M429.13 12.2188L3.18841 194.55L0.916708 189.237C-0.266218 186.459 -0.299658 183.326 0.823717 180.523C1.94709 177.721 4.13555 175.479 6.90897 174.289L411.915 0.919231C414.69 -0.266122 417.822 -0.301533 420.624 0.820765C423.425 1.94306 425.667 4.13142 426.858 6.90573L429.13 12.2188Z" fill="#029C55"/>
<path d="M18.8449 181.478C20.4714 181.478 21.7899 180.159 21.7899 178.532C21.7899 176.904 20.4714 175.585 18.8449 175.585C17.2185 175.585 15.9 176.904 15.9 178.532C15.9 180.159 17.2185 181.478 18.8449 181.478Z" fill="white"/>
<path d="M29.1223 177.079C30.7488 177.079 32.0673 175.76 32.0673 174.132C32.0673 172.505 30.7488 171.186 29.1223 171.186C27.4959 171.186 26.1774 172.505 26.1774 174.132C26.1774 175.76 27.4959 177.079 29.1223 177.079Z" fill="white"/>
<path d="M39.3997 172.68C41.0261 172.68 42.3447 171.36 42.3447 169.733C42.3447 168.106 41.0261 166.786 39.3997 166.786C37.7732 166.786 36.4547 168.106 36.4547 169.733C36.4547 171.36 37.7732 172.68 39.3997 172.68Z" fill="white"/>
<path d="M208.931 250.253L158.584 271.805C155.818 272.985 152.696 273.02 149.905 271.9C147.113 270.781 144.879 268.599 143.693 265.834L115.9 200.833C114.721 198.065 114.686 194.941 115.805 192.148C116.924 189.354 119.104 187.119 121.868 185.932L172.215 164.38C174.982 163.2 178.103 163.166 180.895 164.285C183.687 165.405 185.921 167.586 187.107 170.352L214.899 235.352C216.079 238.121 216.113 241.244 214.994 244.037C213.876 246.831 211.695 249.066 208.931 250.253Z" fill="#F2F2F2"/>
<path d="M294.122 213.786L243.775 235.338C241.009 236.518 237.887 236.552 235.095 235.433C232.303 234.314 230.069 232.132 228.883 229.366L201.091 164.366C199.911 161.597 199.877 158.474 200.996 155.681C202.114 152.887 204.295 150.652 207.059 149.465L257.406 127.913C260.172 126.733 263.294 126.698 266.085 127.818C268.877 128.937 271.111 131.119 272.297 133.884L300.09 198.885C301.269 201.653 301.304 204.777 300.185 207.57C299.066 210.364 296.886 212.599 294.122 213.786Z" fill="#F2F2F2"/>
<path d="M379.313 177.319L328.966 198.87C326.199 200.051 323.077 200.085 320.286 198.966C317.494 197.846 315.26 195.665 314.074 192.899L286.281 127.898C285.102 125.13 285.067 122.007 286.186 119.213C287.305 116.42 289.485 114.185 292.249 112.998L342.596 91.4459C345.363 90.2654 348.484 90.2311 351.276 91.3505C354.068 92.47 356.302 94.6517 357.488 97.4171L385.28 162.418C386.46 165.186 386.494 168.31 385.376 171.103C384.257 173.896 382.076 176.132 379.313 177.319Z" fill="#F2F2F2"/>
<path d="M251.929 350.817L201.582 372.369C198.816 373.55 195.694 373.584 192.903 372.465C190.111 371.345 187.877 369.163 186.691 366.398L158.898 301.397C157.719 298.629 157.684 295.506 158.803 292.712C159.922 289.919 162.102 287.683 164.866 286.497L215.213 264.945C217.98 263.764 221.101 263.73 223.893 264.849C226.685 265.969 228.919 268.151 230.105 270.916L257.897 335.917C259.077 338.685 259.111 341.808 257.992 344.602C256.874 347.395 254.693 349.63 251.929 350.817Z" fill="#F2F2F2"/>
<path d="M337.12 314.35L286.773 335.902C284.006 337.082 280.885 337.117 278.093 335.997C275.301 334.878 273.067 332.696 271.881 329.931L244.089 264.93C242.909 262.162 242.875 259.038 243.994 256.245C245.112 253.452 247.293 251.216 250.057 250.029L300.404 228.477C303.17 227.297 306.292 227.263 309.083 228.382C311.875 229.501 314.109 231.683 315.295 234.449L343.088 299.449C344.267 302.218 344.302 305.341 343.183 308.134C342.064 310.928 339.884 313.163 337.12 314.35Z" fill="#F2F2F2"/>
<path d="M422.311 277.883L371.963 299.435C369.197 300.615 366.075 300.65 363.284 299.53C360.492 298.411 358.258 296.229 357.072 293.464L329.279 228.463C328.1 225.694 328.065 222.571 329.184 219.778C330.303 216.984 332.483 214.749 335.247 213.562L385.594 192.01C388.361 190.83 391.482 190.795 394.274 191.915C397.066 193.034 399.3 195.216 400.486 197.981L428.278 262.982C429.458 265.75 429.492 268.874 428.374 271.667C427.255 274.461 425.074 276.696 422.311 277.883Z" fill="#F2F2F2"/>
<path d="M554.656 506H114.062C111.054 505.997 108.17 504.8 106.044 502.672C103.917 500.544 102.721 497.659 102.717 494.649V222.811C102.72 220.606 103.596 218.493 105.154 216.934C106.712 215.375 108.825 214.498 111.028 214.495H557.545C559.787 214.498 561.936 215.39 563.521 216.976C565.106 218.562 565.997 220.712 566 222.955V494.649C565.997 497.659 564.8 500.544 562.674 502.672C560.547 504.8 557.663 505.997 554.656 506Z" fill="#E6E6E6"/>
<path d="M540.41 491.669H129.788C123.769 491.669 118.872 487.08 118.872 481.441V244.721C118.872 240.538 122.501 237.135 126.961 237.135H543.103C547.638 237.135 551.327 240.594 551.327 244.846V481.441C551.327 487.08 546.43 491.669 540.41 491.669Z" fill="white"/>
<path d="M565.842 224.226H102.558V218.447C102.563 215.427 103.764 212.533 105.898 210.399C108.033 208.264 110.926 207.064 113.944 207.062H554.457C557.474 207.064 560.368 208.264 562.502 210.399C564.637 212.533 565.838 215.427 565.842 218.447V224.226Z" fill="#029C55"/>
<path d="M123.25 218.608C124.876 218.608 126.194 217.288 126.194 215.661C126.194 214.033 124.876 212.714 123.25 212.714C121.623 212.714 120.305 214.033 120.305 215.661C120.305 217.288 121.623 218.608 123.25 218.608Z" fill="white"/>
<path d="M134.428 218.608C136.054 218.608 137.373 217.288 137.373 215.661C137.373 214.033 136.054 212.714 134.428 212.714C132.801 212.714 131.483 214.033 131.483 215.661C131.483 217.288 132.801 218.608 134.428 218.608Z" fill="white"/>
<path d="M145.606 218.608C147.233 218.608 148.551 217.288 148.551 215.661C148.551 214.033 147.233 212.714 145.606 212.714C143.98 212.714 142.661 214.033 142.661 215.661C142.661 217.288 143.98 218.608 145.606 218.608Z" fill="white"/>
<path d="M518.182 303.587H323.631C315.841 303.587 309.527 309.905 309.527 317.699V317.699C309.527 325.493 315.841 331.811 323.631 331.811H518.182C525.971 331.811 532.286 325.493 532.286 317.699C532.286 309.905 525.971 303.587 518.182 303.587Z" fill="#E6E6E6"/>
<path d="M518.182 350.29H323.631C315.841 350.29 309.527 356.608 309.527 364.402V364.402C309.527 372.196 315.841 378.514 323.631 378.514H518.182C525.971 378.514 532.286 372.196 532.286 364.402C532.286 356.608 525.971 350.29 518.182 350.29Z" fill="#E6E6E6"/>
<path d="M518.182 396.993H323.631C315.841 396.993 309.527 403.311 309.527 411.105V411.105C309.527 418.898 315.841 425.217 323.631 425.217H518.182C525.971 425.217 532.286 418.898 532.286 411.105C532.286 403.311 525.971 396.993 518.182 396.993Z" fill="#E6E6E6"/>
<path d="M291.231 364.402C291.231 379.368 286.796 393.999 278.486 406.443C270.176 418.887 258.364 428.586 244.545 434.314C230.726 440.041 215.519 441.54 200.849 438.62C186.179 435.7 172.703 428.493 162.126 417.91C151.549 407.327 144.347 393.844 141.428 379.165C138.51 364.486 140.008 349.271 145.732 335.443C151.456 321.616 161.15 309.798 173.587 301.483C186.024 293.168 200.645 288.73 215.603 288.73C235.659 288.736 254.892 296.711 269.073 310.9C283.255 325.09 291.225 344.334 291.231 364.402Z" fill="white"/>
<path d="M250.557 377.35C249.731 425.747 177.785 425.739 176.966 377.349C177.792 328.954 249.738 328.961 250.557 377.35Z" fill="#029C55"/>
<path d="M212.301 392.372L212.262 390.996C221.74 392.262 223.781 380.51 214.223 384.903L216.405 368.95L217.767 369.137L215.911 382.707C225.975 381.208 222.252 393.747 212.301 392.372Z" fill="#2F2E41"/>
<path d="M231.91 370.307H224.504V371.683H231.91V370.307Z" fill="#2F2E41"/>
<path d="M208.534 370.307H201.128V371.683H208.534V370.307Z" fill="#2F2E41"/>
<path d="M225.689 428.826C227.133 419.078 215.727 421.005 209.691 420.908C208.717 420.911 207.757 421.132 206.879 421.553C206.002 421.974 205.229 422.586 204.618 423.344C204.007 424.102 203.572 424.987 203.346 425.934C203.12 426.881 203.108 427.867 203.31 428.82C198.638 430.265 194.312 432.653 190.598 435.836C206.248 441.297 223.253 441.485 239.021 436.373C235.177 432.919 230.628 430.344 225.689 428.826Z" fill="#2F2E41"/>
<path d="M196.462 359.936C203.281 355.993 211.551 359.018 218.595 360.672C231.959 364.783 250.7 359.636 252.325 343.706C254.017 328.892 233.763 320.635 227.289 335.38L229.174 335.133C208.179 303.914 171.659 305.098 171.899 348.019C171.821 349.345 173.884 349.341 173.961 348.018C173.188 322.725 189.918 305.436 213.567 321.69C218.978 325.641 223.358 330.874 227.393 336.175C229.856 338.937 230.391 327.043 242.179 330.158C255.152 335.187 250.919 353.774 239.323 357.854C224.996 365.178 209.48 350.978 195.421 358.153C195.195 358.296 195.033 358.522 194.969 358.782C194.906 359.042 194.946 359.317 195.081 359.548C195.216 359.779 195.435 359.949 195.693 360.022C195.951 360.094 196.226 360.063 196.462 359.936V359.936Z" fill="#2F2E41"/>
<path d="M215.603 442.138C196.073 442.121 177.267 434.739 162.935 421.464C148.603 408.188 139.799 389.995 138.279 370.513C136.759 351.03 142.634 331.691 154.733 316.35C166.832 301.01 184.266 290.797 203.557 287.748C222.848 284.699 242.579 289.038 258.814 299.9C275.05 310.761 286.597 327.347 291.153 346.35C295.708 365.353 292.938 385.375 283.393 402.424C273.849 419.474 258.232 432.297 239.658 438.336C231.89 440.864 223.772 442.147 215.603 442.138ZM215.603 290.793C201.05 290.791 186.824 295.108 174.723 303.196C162.622 311.285 153.19 322.782 147.62 336.235C142.049 349.687 140.592 364.49 143.43 378.772C146.269 393.054 153.276 406.172 163.567 416.469C173.857 426.765 186.968 433.777 201.241 436.617C215.515 439.457 230.309 437.999 243.754 432.425C257.199 426.852 268.69 417.414 276.773 405.306C284.857 393.198 289.171 378.963 289.169 364.402C289.147 344.886 281.389 326.177 267.598 312.377C253.806 298.578 235.107 290.815 215.603 290.793Z" fill="#3F3D56"/>
</svg>
