<svg width="502" height="335" viewBox="0 0 502 335" fill="none" xmlns="http://www.w3.org/2000/svg">
<rect width="502" height="335" rx="20" fill="#FFC107"/>
<circle cx="149.5" cy="166.5" r="108.5" fill="#F1F1F1"/>
<rect x="306" y="59" width="154" height="40" fill="#47ACF5"/>
<rect x="300" y="137" width="167" height="12" rx="6" fill="#AF6128"/>
<rect x="323" y="181" width="120" height="12" rx="6" fill="#AF6128"/>
<rect x="300" y="225" width="166" height="12" rx="6" fill="#AF6128"/>
<rect x="323" y="269" width="120" height="12" rx="6" fill="#AF6128"/>
<path d="M130.513 177.35C130.513 184.837 124.437 190.913 116.95 190.913C109.464 190.913 103.388 184.837 103.388 177.35C103.388 169.864 109.464 163.788 116.95 163.788C124.437 163.788 130.513 169.864 130.513 177.35ZM182.05 163.788C174.564 163.788 168.488 169.864 168.488 177.35C168.488 184.837 174.564 190.913 182.05 190.913C189.537 190.913 195.613 184.837 195.613 177.35C195.613 169.864 189.537 163.788 182.05 163.788ZM258 166.5C258 226.392 209.392 275 149.5 275C89.608 275 41 226.392 41 166.5C41 106.608 89.608 58 149.5 58C209.392 58 258 106.608 258 166.5ZM134.961 81.002C150.151 106.174 177.71 123.1 209.175 123.1C214.166 123.1 219.049 122.558 223.714 121.798C208.524 96.626 180.965 79.7 149.5 79.7C144.509 79.7 139.627 80.2425 134.961 81.002ZM67.257 139.05C85.8105 128.525 100.133 111.382 106.968 90.8755C88.4145 101.4 74.0925 118.543 67.257 139.05ZM236.3 166.5C236.3 158.037 234.998 149.9 232.72 142.196C225.125 143.824 217.313 144.8 209.175 144.8C175.215 144.8 144.943 129.176 124.979 104.764C113.587 132.54 90.91 154.348 62.7 164.981C62.8085 165.415 62.7 165.958 62.7 166.5C62.7 214.349 101.652 253.3 149.5 253.3C197.349 253.3 236.3 214.349 236.3 166.5Z" fill="black"/>
</svg>
